PathFileType	4	(X/Y/Z)	D:\Research_projects\MuscleProsody\BulkSports2Dtrack\RetrackedSports2D\p1_sample60_cam3\p1_sample60_cam3_Sports2D\p1_sample60_cam3_Sports2D_m_person00.trc
DataRate	CameraRate	NumFrames	NumMarkers	Units	OrigDataRate	OrigDataStartFrame	OrigNumFrames
60	60	6	22	m	60	0	780
Frame#	Time	Hip			RHip			RKnee			RAnkle			RBigToe			RSmallToe			RHeel			LHip			LKnee			LAnkle			LBigToe			LSmallToe			LHeel			Neck			Head			Nose			RShoulder			RElbow			RWrist			LShoulder			LElbow			LWrist		
		X1	Y1	Z1	X2	Y2	Z2	X3	Y3	Z3	X4	Y4	Z4	X5	Y5	Z5	X6	Y6	Z6	X7	Y7	Z7	X8	Y8	Z8	X9	Y9	Z9	X10	Y10	Z10	X11	Y11	Z11	X12	Y12	Z12	X13	Y13	Z13	X14	Y14	Z14	X15	Y15	Z15	X16	Y16	Z16	X17	Y17	Z17	X18	Y18	Z18	X19	Y19	Z19	X20	Y20	Z20	X21	Y21	Z21	X22	Y22	Z22
0	0.0	0.48458764516359537	0.7617047983698239	0.0301	0.42834464379916154	0.7012166416202751	0.0301	0.625598255037318	0.39634678410064345	0.129	0.7906895669922621	0.1428403315327293	0.023	0.7356847560735046	-0.00030850662500173836	0.2179	0.7127907556376469	0.01922672106756175	0.1804	0.8450133794447803	0.11345489673196875	-0.0119	0.5828484646118106	0.763811381135655	0.0301	0.7632694725002519	0.4395965056073174	0.129	0.9351344828215511	0.15925362551481487	0.023	0.8714148660851643	0.006312519842485604	0.2179	0.9469284141461833	0.02789021362625393	0.1804	1.0003501946391677	0.13466001620624343	-0.0119	0.22002672891375366	1.3636018687579938	0.0008	0.04506783054585608	1.583051016891962	0.0655	0.0039362960231929985	1.3983686849457295	0.1076	0.1569097613151441	1.2228291190808083	-0.01275	0.2497578321489379	0.9549074261303816	0.0702	0.28325935099782257	0.7260016245788773	0.1076	0.4212090182012286	1.345761577361891	-0.01275	0.6044494750941213	1.0823167371608964	0.0702	0.6867649965571726	0.8218039219439014	0.1076
1	0.016666666666666666	0.4850235215901956	0.7626701033640554	0.0301	0.4280371512712246	0.7033695415182608	0.0301	0.6248486687430432	0.3964802900651587	0.129	0.7899717029356993	0.14220840674598614	0.023	0.7365760006897875	0.00020470848331009153	0.2179	0.7129178204655364	0.018756363292984073	0.1804	0.8446196968223011	0.11256149569855523	-0.0119	0.5828305623170466	0.7653012189475354	0.0301	0.7636997308332351	0.44020331088316395	0.129	0.9362113030700396	0.15864291597105393	0.023	0.871118959491054	0.005538647289065894	0.2179	0.9457655909419708	0.02670942834635785	0.1804	0.9999292032973794	0.13484602041659188	-0.0119	0.22071683102388706	1.3633952051302505	0.0008	0.045130304043084817	1.5824415648375854	0.0655	0.004984546031124831	1.398526135410973	0.1076	0.1570675074119395	1.2230469276414082	-0.01275	0.24939214726719358	0.9558031351180339	0.0702	0.2819889389881968	0.7250217956027546	0.1076	0.42194539918178836	1.3455634822851275	-0.01275	0.6051523482589978	1.0816573601787263	0.0702	0.686692056492283	0.8207027622202211	0.1076
2	0.03333333333333333	0.48541933339113597	0.7636171684464073	0.0301	0.4277573567006536	0.7053873482539903	0.0301	0.6241358899666963	0.3966289310399118	0.129	0.7892748365131002	0.1416065455150736	0.023	0.7374142139582325	0.0006765267652721911	0.2179	0.7130471056262658	0.01825341103617645	0.1804	0.8442249970131208	0.1117342166320265	-0.0119	0.5828114112321295	0.766726234290164	0.0301	0.7641057656706817	0.4407885463658158	0.129	0.9371617389621093	0.15809370399674755	0.023	0.8708482076705752	0.004812195007517535	0.2179	0.9447060954963384	0.025613368177408308	0.1804	0.999448661340901	0.13501093891193894	-0.0119	0.2213332500991925	1.363210402823138	0.0008	0.04519570697051107	1.581887463861035	0.0655	0.00597774030798313	1.39870780264953	0.1076	0.1571994170204386	1.2232478471694228	-0.01275	0.24901416777801316	0.9566484733391393	0.0702	0.28075136426729974	0.7241353978725117	0.1076	0.4226179218941895	1.3453756372635925	-0.01275	0.6057876397657285	1.0810245766835174	0.0702	0.6866136489419258	0.8196879010002315	0.1076
3	0.05	0.4857646136951337	0.764501064392987	0.0301	0.4275447823823269	0.7071410373093534	0.0301	0.6235090994629809	0.39676930317740516	0.129	0.7886137976881061	0.1410477822732088	0.023	0.7381766953281029	0.001096612276735946	0.2179	0.7131966469969893	0.017719171168485055	0.1804	0.8438262614727116	0.11101168366614164	-0.0119	0.5827917022367622	0.7680128735005068	0.0301	0.7644977377099428	0.44130619672057203	0.129	0.9379105213962391	0.1576163654433066	0.023	0.8706163900460497	0.004158609120214961	0.2179	0.9438119671374825	0.02464652528895204	0.1804	0.9988949759491835	0.1351147478222481	-0.0119	0.2218438350462575	1.3630596357582654	0.0008	0.04527124543983495	1.581410660700007	0.0655	0.00690254305784737	1.398906738971575	0.1076	0.15728075238831474	1.2234254269706633	-0.01275	0.2486189431886808	0.9573994530869911	0.0702	0.2795685575900503	0.7233890541559052	0.1076	0.4231984348270655	1.3452079192707027	-0.01275	0.606313276351706	1.0804438724104413	0.0702	0.6865178087127773	0.818822599804887	0.1076
4	0.06666666666666667	0.48606206174416344	0.7652789115394616	0.0301	0.42743279474275747	0.7085381064774775	0.0301	0.6230052915436814	0.39686076721955665	0.129	0.788006326684261	0.14051941114373884	0.023	0.7388592719974454	0.0014693714631504819	0.2179	0.7133840701949018	0.0171739404910242	0.1804	0.8434306320476808	0.11038951458886313	-0.0119	0.5827836010394412	0.7691052835252372	0.0301	0.7649048484401767	0.4417082621532707	0.129	0.9384249629771928	0.15718519020136737	0.023	0.8704316405672615	0.0035715951663847227	0.2179	0.9431083651899278	0.023808798064587446	0.1804	0.9982875073260187	0.13510747811761853	-0.0119	0.22223779106104502	1.362950745038296	0.0008	0.04536817861842434	1.5810169524082063	0.0655	0.007751644688064478	1.3991087149925732	0.1076	0.1573044536212928	1.2235769299162522	-0.01275	0.2482082171535759	0.9580389511037688	0.0702	0.27845597516991855	0.7228017288497699	0.1076	0.42366047249832567	1.3450699150891978	-0.01275	0.6067168897393911	1.0799449319103567	0.0702	0.6863965998640101	0.8181433143850921	0.1076
5	0.08333333333333333	0.486319810495071	0.7659235616748475	0.0301	0.42743544531948224	0.7095402675352303	0.0301	0.6226432857996416	0.39687070029091126	0.129	0.7874743224677186	0.1400075190984749	0.023	0.7394749071825586	0.0018066667957451772	0.2179	0.7136210350720047	0.016648604239837234	0.1804	0.8430571983974504	0.10984626557371469	-0.0119	0.5827971278313414	0.769975574610095	0.0301	0.7653515175039454	0.44196653393379864	0.129	0.9387064410093299	0.15677246548962115	0.023	0.8702988802551388	0.003036238277116145	0.2179	0.9425931374938706	0.023084421387112655	0.1804	0.9976581893307588	0.13496012320285872	-0.0119	0.22251877069175074	1.3628924197915355	0.0008	0.04548671154858785	1.580711929198728	0.0655	0.008517299485581277	1.3992993067826998	0.1076	0.15727612687854822	1.2236972615810888	-0.01275	0.2477853439022097	0.9585685664438683	0.0702	0.27742623234578256	0.7223717383039695	0.1076	0.4239867425794349	1.344973564066726	-0.01275	0.6070084015645544	1.079552006751437	0.0702	0.6862499672615473	0.8176647681647268	0.1076
